<svg width="100" height="100" viewBox="0 0 100 100" fill="none" xmlns="http://www.w3.org/2000/svg">
<rect width="100" height="100" fill="#222222"/>
<path d="M30.4781 41V27H32.3581V39.56H38.8781V41H30.4781ZM61.7266 41.2C60.6466 41.2 59.6932 41.0133 58.8666 40.64C58.0399 40.2667 57.3466 39.7467 56.7866 39.08C56.2266 38.4133 55.7999 37.6467 55.5066 36.78C55.2266 35.9133 55.0866 34.9867 55.0866 34C55.0866 33.0133 55.2266 32.0867 55.5066 31.22C55.7999 30.3533 56.2266 29.5867 56.7866 28.92C57.3466 28.2533 58.0399 27.7333 58.8666 27.36C59.6932 26.9867 60.6466 26.8 61.7266 26.8C62.8066 26.8 63.7599 26.9867 64.5866 27.36C65.4132 27.7333 66.1066 28.2533 66.6666 28.92C67.2266 29.5867 67.6466 30.3533 67.9266 31.22C68.2199 32.0867 68.3666 33.0133 68.3666 34C68.3666 34.9867 68.2199 35.9133 67.9266 36.78C67.6466 37.6467 67.2266 38.4133 66.6666 39.08C66.1066 39.7467 65.4132 40.2667 64.5866 40.64C63.7599 41.0133 62.8066 41.2 61.7266 41.2ZM61.7266 39.7C62.7532 39.7 63.6132 39.46 64.3066 38.98C65.0132 38.4867 65.5399 37.8133 65.8866 36.96C66.2466 36.0933 66.4266 35.1067 66.4266 34C66.4266 32.88 66.2466 31.8933 65.8866 31.04C65.5399 30.1867 65.0132 29.52 64.3066 29.04C63.6132 28.5467 62.7532 28.3 61.7266 28.3C60.6999 28.3 59.8332 28.5467 59.1266 29.04C58.4332 29.52 57.9066 30.1867 57.5466 31.04C57.1999 31.8933 57.0266 32.88 57.0266 34C57.0266 35.1067 57.1999 36.0933 57.5466 36.96C57.9066 37.8133 58.4332 38.4867 59.1266 38.98C59.8332 39.46 60.6999 39.7 61.7266 39.7ZM34.232 73.2C32.0454 73.2 30.3587 72.5667 29.172 71.3C27.9987 70.0333 27.412 68.2667 27.412 66C27.412 64.56 27.6854 63.3 28.232 62.22C28.792 61.14 29.572 60.3 30.572 59.7C31.572 59.1 32.732 58.8 34.052 58.8C35.1454 58.8 36.0987 58.9867 36.912 59.36C37.7387 59.72 38.3787 60.2467 38.832 60.94C39.2987 61.62 39.5454 62.44 39.572 63.4H37.692C37.652 62.6533 37.452 62.0533 37.092 61.6C36.7454 61.1467 36.2987 60.82 35.752 60.62C35.2187 60.4067 34.652 60.3 34.052 60.3C32.5987 60.3 31.452 60.8067 30.612 61.82C29.772 62.8333 29.352 64.2267 29.352 66C29.352 69.8 31.0187 71.7 34.352 71.7C35.4854 71.7 36.5054 71.4667 37.412 71V67.4H33.972V65.92H39.212V71.98C37.6387 72.7933 35.9787 73.2 34.232 73.2ZM63.9727 73.2C62.8927 73.2 61.9393 73.0133 61.1127 72.64C60.286 72.2667 59.5927 71.7467 59.0327 71.08C58.4727 70.4133 58.046 69.6467 57.7527 68.78C57.4727 67.9133 57.3327 66.9867 57.3327 66C57.3327 65.0133 57.4727 64.0867 57.7527 63.22C58.046 62.3533 58.4727 61.5867 59.0327 60.92C59.5927 60.2533 60.286 59.7333 61.1127 59.36C61.9393 58.9867 62.8927 58.8 63.9727 58.8C65.0527 58.8 66.006 58.9867 66.8327 59.36C67.6593 59.7333 68.3527 60.2533 68.9127 60.92C69.4727 61.5867 69.8927 62.3533 70.1727 63.22C70.466 64.0867 70.6127 65.0133 70.6127 66C70.6127 66.9867 70.466 67.9133 70.1727 68.78C69.8927 69.6467 69.4727 70.4133 68.9127 71.08C68.3527 71.7467 67.6593 72.2667 66.8327 72.64C66.006 73.0133 65.0527 73.2 63.9727 73.2ZM63.9727 71.7C64.9993 71.7 65.8593 71.46 66.5527 70.98C67.2593 70.4867 67.786 69.8133 68.1327 68.96C68.4927 68.0933 68.6727 67.1067 68.6727 66C68.6727 64.88 68.4927 63.8933 68.1327 63.04C67.786 62.1867 67.2593 61.52 66.5527 61.04C65.8593 60.5467 64.9993 60.3 63.9727 60.3C62.946 60.3 62.0793 60.5467 61.3727 61.04C60.6793 61.52 60.1527 62.1867 59.7927 63.04C59.446 63.8933 59.2727 64.88 59.2727 66C59.2727 67.1067 59.446 68.0933 59.7927 68.96C60.1527 69.8133 60.6793 70.4867 61.3727 70.98C62.0793 71.46 62.946 71.7 63.9727 71.7Z" fill="white"/>
</svg>
